HIERARCHY
ROOT Hips
{
  OFFSET 5.84602e-005 68.8428 3.50346
  CHANNELS 6 Xposition Yposition Zposition Zrotation Xrotation Yrotation
  JOINT Spine
  {
    OFFSET 0 8.597 -4.6522
    CHANNELS 3 Zrotation Xrotation Yrotation
    JOINT Spine1
    {
      OFFSET 0 7.8454 0.4098
      CHANNELS 3 Zrotation Xrotation Yrotation
      JOINT Spine2
      {
        OFFSET 0 9.7078 -2.1609
        CHANNELS 3 Zrotation Xrotation Yrotation
        JOINT Neck
        {
          OFFSET 0 21.8761 -0.4549
          CHANNELS 3 Zrotation Xrotation Yrotation
          JOINT Head
          {
            OFFSET 0 12.3537 3.3602
            CHANNELS 3 Zrotation Xrotation Yrotation
            End Site
            {
              OFFSET 0.0001 18.9506 0.5657
            }
          }
        }
        JOINT LeftShoulder
        {
          OFFSET 2.2086 21.1115 7.2329
          CHANNELS 3 Zrotation Xrotation Yrotation
          JOINT LeftArm
          {
            OFFSET 13.1193 3.0282 -4.8998
            CHANNELS 3 Zrotation Xrotation Yrotation
            JOINT LeftForeArm
            {
              OFFSET 27.4081 -0.0973053 -0.2375
              CHANNELS 3 Zrotation Xrotation Yrotation
              JOINT LeftHand
              {
                OFFSET 22.8641 0.0662994 -0.1369
                CHANNELS 3 Zrotation Xrotation Yrotation
                JOINT LeftHandIndex1
                {
                  OFFSET 8.8614 0.775009 2.4612
                  CHANNELS 3 Zrotation Xrotation Yrotation
                  JOINT LeftHandIndex2
                  {
                    OFFSET 3.3146 -0.808304 0.5841
                    CHANNELS 3 Zrotation Xrotation Yrotation
                    JOINT LeftHandIndex3
                    {
                      OFFSET 2.2628 -0.552002 0.3989
                      CHANNELS 3 Zrotation Xrotation Yrotation
                      End Site
                      {
                        OFFSET 1.6102 -0.4807 0.2612
                      }
                    }
                  }
                }
                JOINT LeftHandMiddle1
                {
                  OFFSET 8.9937 0.895004 0.2143
                  CHANNELS 3 Zrotation Xrotation Yrotation
                  JOINT LeftHandMiddle2
                  {
                    OFFSET 4.0984 0.0113983 -0.0242
                    CHANNELS 3 Zrotation Xrotation Yrotation
                    JOINT LeftHandMiddle3
                    {
                      OFFSET 2.2716 0.00689697 -0.0138001
                      CHANNELS 3 Zrotation Xrotation Yrotation
                      End Site
                      {
                        OFFSET 2.0404 -0.1441 0.0027
                      }
                    }
                  }
                }
                JOINT LeftHandRing1
                {
                  OFFSET 8.5234 0.597198 -2.0164
                  CHANNELS 3 Zrotation Xrotation Yrotation
                  JOINT LeftHandRing2
                  {
                    OFFSET 3.7188 -0.188293 -0.2328
                    CHANNELS 3 Zrotation Xrotation Yrotation
                    JOINT LeftHandRing3
                    {
                      OFFSET 2.1191 -0.106598 -0.1332
                      CHANNELS 3 Zrotation Xrotation Yrotation
                      End Site
                      {
                        OFFSET 1.8737 -0.2304 -0.0886
                      }
                    }
                  }
                }
                JOINT LeftHandPinky1
                {
                  OFFSET 7.9094 -0.601089 -3.4825
                  CHANNELS 3 Zrotation Xrotation Yrotation
                  JOINT LeftHandPinky2
                  {
                    OFFSET 2.2874 -0.477005 -0.6314
                    CHANNELS 3 Zrotation Xrotation Yrotation
                    JOINT LeftHandPinky3
                    {
                      OFFSET 1.6774 -0.349396 -0.4633
                      CHANNELS 3 Zrotation Xrotation Yrotation
                      End Site
                      {
                        OFFSET 1.4888 -0.4091 -0.3416
                      }
                    }
                  }
                }
                JOINT LeftHandThumb1
                {
                  OFFSET 1.833 -1.3875 1.3896
                  CHANNELS 3 Zrotation Xrotation Yrotation
                  JOINT LeftHandThumb2
                  {
                    OFFSET 3.4129 -1.121 2.5732
                    CHANNELS 3 Zrotation Xrotation Yrotation
                    JOINT LeftHandThumb3
                    {
                      OFFSET 2.2474 -0.804199 1.6192
                      CHANNELS 3 Zrotation Xrotation Yrotation
                      End Site
                      {
                        OFFSET 1.6527 -0.5689 1.1317
                      }
                    }
                  }
                }
              }
            }
          }
        }
        JOINT RightShoulder
        {
          OFFSET -2.2086 21.1115 7.2329
          CHANNELS 3 Zrotation Xrotation Yrotation
          JOINT RightArm
          {
            OFFSET -13.1216 3.0287 -4.9007
            CHANNELS 3 Zrotation Xrotation Yrotation
            JOINT RightForeArm
            {
              OFFSET -27.4081 -0.0973053 -0.2375
              CHANNELS 3 Zrotation Xrotation Yrotation
              JOINT RightHand
              {
                OFFSET -22.8641 0.0664063 -0.1369
                CHANNELS 3 Zrotation Xrotation Yrotation
                JOINT RightHandIndex1
                {
                  OFFSET -8.8614 0.774994 2.4612
                  CHANNELS 3 Zrotation Xrotation Yrotation
                  JOINT RightHandIndex2
                  {
                    OFFSET -3.3146 -0.808304 0.5841
                    CHANNELS 3 Zrotation Xrotation Yrotation
                    JOINT RightHandIndex3
                    {
                      OFFSET -2.2628 -0.552002 0.3989
                      CHANNELS 3 Zrotation Xrotation Yrotation
                      End Site
                      {
                        OFFSET -1.6102 -0.4807 0.2612
                      }
                    }
                  }
                }
                JOINT RightHandMiddle1
                {
                  OFFSET -8.9937 0.894989 0.2143
                  CHANNELS 3 Zrotation Xrotation Yrotation
                  JOINT RightHandMiddle2
                  {
                    OFFSET -4.0984 0.0113983 -0.0242
                    CHANNELS 3 Zrotation Xrotation Yrotation
                    JOINT RightHandMiddle3
                    {
                      OFFSET -2.2716 0.00691223 -0.0138001
                      CHANNELS 3 Zrotation Xrotation Yrotation
                      End Site
                      {
                        OFFSET -2.0404 -0.1441 0.0027
                      }
                    }
                  }
                }
                JOINT RightHandRing1
                {
                  OFFSET -8.5234 0.597198 -2.0164
                  CHANNELS 3 Zrotation Xrotation Yrotation
                  JOINT RightHandRing2
                  {
                    OFFSET -3.7188 -0.188309 -0.2328
                    CHANNELS 3 Zrotation Xrotation Yrotation
                    JOINT RightHandRing3
                    {
                      OFFSET -2.1191 -0.106598 -0.1332
                      CHANNELS 3 Zrotation Xrotation Yrotation
                      End Site
                      {
                        OFFSET -1.8737 -0.2304 -0.0886
                      }
                    }
                  }
                }
                JOINT RightHandPinky1
                {
                  OFFSET -7.9094 -0.601105 -3.4825
                  CHANNELS 3 Zrotation Xrotation Yrotation
                  JOINT RightHandPinky2
                  {
                    OFFSET -2.2874 -0.477005 -0.6314
                    CHANNELS 3 Zrotation Xrotation Yrotation
                    JOINT RightHandPinky3
                    {
                      OFFSET -1.6774 -0.349396 -0.4633
                      CHANNELS 3 Zrotation Xrotation Yrotation
                      End Site
                      {
                        OFFSET -1.4888 -0.4091 -0.3416
                      }
                    }
                  }
                }
                JOINT RightHandThumb1
                {
                  OFFSET -1.833 -1.38751 1.3896
                  CHANNELS 3 Zrotation Xrotation Yrotation
                  JOINT RightHandThumb2
                  {
                    OFFSET -3.41299 -1.12099 2.5732
                    CHANNELS 3 Zrotation Xrotation Yrotation
                    JOINT RightHandThumb3
                    {
                      OFFSET -2.24741 -0.804108 1.6192
                      CHANNELS 3 Zrotation Xrotation Yrotation
                      End Site
                      {
                        OFFSET -1.6527 -0.5689 1.1317
                      }
                    }
                  }
                }
              }
            }
          }
        }
      }
    }
  }
  JOINT RightUpLeg
  {
    OFFSET -9.1966 3.8861 -0.7581
    CHANNELS 3 Zrotation Xrotation Yrotation
    JOINT RightLeg
    {
      OFFSET -0.7359 -41.0265 0
      CHANNELS 3 Zrotation Xrotation Yrotation
      JOINT RightFoot
      {
        OFFSET 0 -40.2855 0
        CHANNELS 3 Zrotation Xrotation Yrotation
        JOINT RightToeBase
        {
          OFFSET 0 -5.6122 11.7359
          CHANNELS 3 Zrotation Xrotation Yrotation
          End Site
          {
            OFFSET 0 0 7.8731
          }
        }
      }
    }
  }
  JOINT LeftUpLeg
  {
    OFFSET 9.1965 3.8864 -0.7581
    CHANNELS 3 Zrotation Xrotation Yrotation
    JOINT LeftLeg
    {
      OFFSET 0.7359 -41.0268 0
      CHANNELS 3 Zrotation Xrotation Yrotation
      JOINT LeftFoot
      {
        OFFSET 0 -40.2855 0
        CHANNELS 3 Zrotation Xrotation Yrotation
        JOINT LeftToeBase
        {
          OFFSET 0 -5.6122 11.7359
          CHANNELS 3 Zrotation Xrotation Yrotation
          End Site
          {
            OFFSET 0 0 7.8731
          }
        }
      }
    }
  }
}
MOTION
Frames:	7
Frame Time:	0.0333333
5.84602e-005 68.8428 3.50346 0 0 -0 0 0 -0 0 0 -0 0 0 -0 0 0 -0 0 0 -0 0 0 -0 0 0 -0 0 0 -0 0 0 -0 0 0 -0 0 0 -0 0 0 -0 0 0 -0 -0.0146107 -8.87603e-005 -2.63497e-007 2.99804e-018 -2.42657e-020 -1.42182e-022 0 0 -0 -0.0187562 -0.001176 5.858e-005 5.06224e-018 3.88251e-019 1.21329e-020 0 0 -0 -0.012269 -0.00324817 0.000675346 -1.74678e-018 3.88251e-019 -0 0 0 -0 0 0 -0 0 0 -0 0 0 -0 0 0 -0 0 0 -0 0 0 -0 0 0 -0 0 0 -0 0 0 -0 0 0 -0 0.0149955 -9.10982e-005 2.64101e-007 -9.69331e-018 1.21329e-020 -4.7394e-023 0 0 -0 0.0189956 -0.00119102 -5.96516e-005 -5.41541e-019 0 2.42657e-020 0 0 -0 0.0122698 -0.00324857 -0.000673756 -2.00796e-019 0 -1.94126e-019 0 0 -0 0 0 -0 0 0 -0 3.39842 1.33031 -0.0637918 -5.65207e-008 0.834868 -0.000436188 -3.39935 -2.16518 -0.0642563 -8.89002e-024 -1.18485e-023 -1.48106e-024 -3.39844 1.35642 0.0640283 -3.18788e-007 0.782166 -0.000588827 3.39931 -2.13858 0.0634662 1.1399e-023 0 -0 
6.12045 55.0637 9.20042 33.3344 -33.2878 0.000782197 -0.0497713 0.226346 -0.257661 -0.0985479 0.452932 -0.515136 -0.0985502 0.452941 -0.515141 4.81358 -0.0280843 0.00656175 3.33287 0.0442952 -0.00700856 11.886 -2.99878 -19.2866 -1.05413 -32.2728 -16.6789 -5.85233 3.41499 -7.72834 -2.55805 0.00240199 -0.00563896 -6.16946e-007 -1.09966e-006 -1.30403e-006 3.18055e-015 4.77083e-015 -0 3.18055e-015 0 4.77083e-015 -6.16946e-007 -1.09966e-006 -1.30403e-006 -0.0146299 -9.22957e-005 4.47702e-007 -6.36111e-015 3.18055e-015 -0 -6.16946e-007 -1.09966e-006 -1.30403e-006 -0.0186457 -0.00116998 5.69089e-005 -0 -1.59028e-015 -0 -6.16946e-007 -1.09966e-006 -1.30403e-006 -0.0124994 -0.00331298 0.000690373 -3.18055e-015 0 -1.59028e-015 -6.16946e-007 -1.09966e-006 -1.30403e-006 3.18055e-015 4.77083e-015 -0 3.18055e-015 0 4.77083e-015 -11.7849 0.310993 -3.22612 -19.554 -7.30692 21.3559 0.425419 0.130198 10.1086 2.59142 -4.66343e-006 3.43544e-007 1.99903e-008 3.81235e-007 -3.70591e-007 2.28061e-007 1.44411e-006 -2.19145e-007 3.97569e-015 9.54166e-015 1.59028e-015 1.99903e-008 3.81235e-007 -3.70591e-007 0.0150185 -9.05739e-005 -8.40361e-007 -2.38542e-015 3.18055e-015 -7.95139e-016 1.99903e-008 3.81235e-007 -3.70591e-007 0.0189069 -0.00118721 -5.97783e-005 7.95139e-016 0 -1.59028e-015 1.99903e-008 3.81235e-007 -3.70591e-007 0.0121531 -0.00321687 -0.000669421 -7.95139e-016 3.18055e-015 7.95139e-016 1.99903e-008 3.81235e-007 -3.70591e-007 2.28061e-007 1.44411e-006 -2.19145e-007 3.97569e-015 9.54166e-015 1.59028e-015 8.23193 -6.84689 1.80437 -4.09028 42.7732 6.26279 -3.86695 1.33484 0.154305 -3.96264e-008 1.11456e-007 1.73724e-006 -5.16344 -43.6998 2.76953 -4.62221 51.2007 8.01882 4.08318 -0.976371 0.271966 -1.62025e-006 -4.90666e-008 3.85325e-007 
7.99326 40.85 12.8664 66.671 -66.5756 0.00328832 -0.0934272 0.451697 -0.516145 -0.182812 0.904203 -1.0316 -0.182804 0.904188 -1.0316 9.62731 -0.0565784 0.0130262 6.66578 0.0885781 -0.0140232 21.9028 -4.96701 -38.6904 -31.6037 -54.1759 -53.5552 -10.789 6.64288 -15.536 -5.11608 0.00482535 -0.011269 4.26735e-007 -5.41325e-008 -7.33212e-007 -3.06477e-007 2.52218e-008 -1.15995e-006 1.59028e-015 3.18055e-015 2.78299e-015 4.26735e-007 -5.41325e-008 -7.33212e-007 -0.0146696 -9.11768e-005 -3.5822e-007 -0 -3.18055e-015 -0 4.26735e-007 -5.41325e-008 -7.33212e-007 -0.018735 -0.00117332 5.66669e-005 1.59028e-015 3.18055e-015 1.19271e-015 4.26735e-007 -5.41325e-008 -7.33212e-007 -0.0122718 -0.00325218 0.000675655 -1.59028e-015 0 -3.18055e-015 4.26735e-007 -5.41325e-008 -7.33212e-007 -3.06477e-007 2.52218e-008 -1.15995e-006 1.59028e-015 3.18055e-015 2.78299e-015 -23.5349 0.619113 -6.45255 -34.0952 -11.5207 43.4313 0.805861 0.248199 20.2174 5.18283 -8.70278e-006 8.24119e-007 -2.94086e-008 3.29194e-006 1.3036e-007 2.81492e-008 -5.67977e-009 1.02785e-007 -2.94085e-008 3.29194e-006 1.3036e-007 -2.94086e-008 3.29194e-006 1.3036e-007 0.0149749 -9.34719e-005 5.51034e-007 -2.92907e-008 3.29196e-006 1.2993e-007 -2.94086e-008 3.29194e-006 1.3036e-007 0.0189892 -0.00119014 -5.9309e-005 -2.92597e-008 3.29196e-006 1.29814e-007 -2.94086e-008 3.29194e-006 1.3036e-007 0.0123087 -0.00325705 -0.000678606 -3.44942e-007 2.97663e-006 1.89173e-007 -2.94086e-008 3.29194e-006 1.3036e-007 2.81492e-008 -5.67977e-009 1.02785e-007 -2.94085e-008 3.29194e-006 1.3036e-007 13.9355 -15.2421 3.68896 -68.5259 78.3164 69.6629 -4.14606 4.20173 -1.0453 1.23106e-008 -4.59747e-007 -8.55242e-007 32.4933 -84.7237 43.3227 -130.914 79.3452 134.406 4.42643 2.49657 0.435572 -3.28523e-006 2.08194e-007 -6.86571e-006 
8.09749 28.5646 14.0595 -108.473 -89.9945 161.525 -0.121114 0.648488 -0.697742 -0.23432 1.29836 -1.39423 -0.234324 1.29837 -1.3942 12.9967 0.000533946 -0.000158473 8.99855 -1.50669e-005 6.23078e-007 28.0871 -5.45072 -52.1959 -68.5871 -52.0785 -90.0909 -13.7479 8.70378 -21.1098 -7.00033 9.85214e-006 -9.85544e-007 7.92597e-007 2.16929e-007 1.75425e-006 1.43262e-006 -7.64066e-008 4.15734e-006 6.36111e-015 0 -2.38542e-015 7.92597e-007 2.16929e-007 1.75425e-006 -0.0145952 -8.90262e-005 1.1409e-006 3.18055e-015 6.36111e-015 -3.97569e-015 7.92597e-007 2.16929e-007 1.75425e-006 -0.0187976 -0.00117784 6.37102e-005 -3.18055e-015 -6.36111e-015 -1.59028e-015 7.92597e-007 2.16929e-007 1.75425e-006 -0.0122728 -0.00325043 0.000683026 1.59028e-015 3.18055e-015 -0 7.92597e-007 2.16929e-007 1.75425e-006 1.43262e-006 -7.64066e-008 4.15734e-006 6.36111e-015 0 -2.38542e-015 -31.7393 0.831479 -8.71134 -42.4605 -11.2886 58.9658 1.04757 0.317325 27.2937 6.99683 3.80155e-006 1.34398e-006 -5.60374e-008 -3.11139e-008 -4.21389e-007 -1.78906e-015 0 2.38542e-015 -5.60374e-008 -3.11139e-008 -4.21389e-007 -5.60374e-008 -3.11139e-008 -4.21389e-007 0.0150243 -9.374e-005 -3.92911e-007 -5.60408e-008 -3.11691e-008 -4.21385e-007 -5.60374e-008 -3.11139e-008 -4.21389e-007 0.0190338 -0.00119358 -6.09984e-005 -5.60457e-008 -3.11836e-008 -4.21383e-007 -5.60374e-008 -3.11139e-008 -4.21389e-007 0.0123319 -0.00326422 -0.000680712 -5.60517e-008 -3.11589e-008 -4.21384e-007 -5.60374e-008 -3.11139e-008 -4.21389e-007 -1.78906e-015 0 2.38542e-015 -5.60374e-008 -3.11139e-008 -4.21389e-007 18.3187 -20.5761 4.78782 -149.329 60.6413 146.793 -4.31209 6.42886 -1.6334 -2.96479e-008 -2.68401e-007 1.71992e-007 158.652 -64.5446 171.321 -166.348 48.8182 166.832 4.58033 3.58197 2.55323 5.37981e-007 -2.21769e-006 5.02253e-006 
8.13316 24.6459 14.1747 -83.3467 -82.9955 179.985 -0.129892 0.799057 -0.750282 -0.249338 1.59984 -1.49889 -0.249335 1.59985 -1.49888 13.9599 0.198127 -0.0457985 9.66504 -0.309984 0.0490709 29.6145 -5.78468 -55.7789 -77.2072 -48.8375 -97.4846 -14.5865 9.2774 -22.7821 -7.76151 -0.0167709 0.0394983 1.30958e-008 -3.99691e-006 1.21739e-006 -1.38939e-006 -3.82492e-006 -2.59443e-006 4.77083e-015 0 3.18055e-015 1.30958e-008 -3.99691e-006 1.21739e-006 -0.0146157 -9.41939e-005 1.80263e-007 -4.77083e-015 -9.54166e-015 4.77083e-015 1.30958e-008 -3.99691e-006 1.21739e-006 -0.0187514 -0.00118155 5.98042e-005 -1.48042e-007 -4.36704e-006 1.20321e-006 1.30958e-008 -3.99691e-006 1.21739e-006 -0.0123246 -0.00326575 0.000679525 1.59028e-015 0 -0 1.30958e-008 -3.99691e-006 1.21739e-006 -1.38939e-006 -3.82492e-006 -2.59443e-006 4.77083e-015 0 3.18055e-015 -34.0802 0.891175 -9.35671 -44.7648 -10.6588 63.3085 1.11325 0.334415 29.3155 7.51511 2.00941e-006 -1.58388e-006 3.77797e-008 5.80455e-008 4.20464e-007 3.77797e-008 5.80455e-008 4.20464e-007 3.77797e-008 5.80455e-008 4.20464e-007 3.77797e-008 5.80455e-008 4.20464e-007 0.0149674 -9.04136e-005 8.38716e-007 3.77833e-008 5.81004e-008 4.20456e-007 3.77797e-008 5.80455e-008 4.20464e-007 0.0190192 -0.00119219 -5.85925e-005 3.77882e-008 5.81151e-008 4.20454e-007 3.77797e-008 5.80455e-008 4.20464e-007 0.0122553 -0.00324463 -0.000675482 3.77939e-008 5.809e-008 4.20456e-007 3.77797e-008 5.80455e-008 4.20464e-007 3.77797e-008 5.80455e-008 4.20464e-007 3.77797e-008 5.80455e-008 4.20464e-007 19.5483 -21.6261 4.90451 -155.058 53.0079 150.946 -4.35817 7.08795 -1.80658 -1.02374e-014 -1.59028e-015 -0 160.311 -56.9521 174.02 -169.146 39.4767 169.107 4.85027 3.38359 3.0798 -3.18055e-015 1.59028e-015 -7.95139e-016 
7.91551 26.6206 14.0841 -86.6893 -85.8545 179.976 -0.129132 0.922275 -0.725023 -0.246627 1.84607 -1.44822 -0.246626 1.84607 -1.4482 13.479 0.481773 -0.1114 9.3325 -0.752828 0.119149 28.5542 -6.54115 -53.4272 -73.1487 -50.5744 -93.4227 -14.3216 9.05225 -22.081 -7.84886 -0.0407692 0.0959004 -6.36111e-015 9.54166e-015 -3.97569e-015 -1.59028e-015 1.27222e-014 -3.18055e-015 0 6.36111e-015 -0 -6.36111e-015 9.54166e-015 -3.97569e-015 -0.0146276 -8.94133e-005 -1.4322e-006 -1.59028e-015 6.36111e-015 -3.97569e-015 -6.36111e-015 9.54166e-015 -3.97569e-015 -0.01876 -0.00117924 6.29843e-005 1.59028e-015 -3.18055e-015 9.54166e-015 -6.36111e-015 9.54166e-015 -3.97569e-015 -0.0122704 -0.00324596 0.000677474 1.59028e-015 3.18055e-015 7.15625e-015 -6.36111e-015 9.54166e-015 -3.97569e-015 -1.59028e-015 1.27222e-014 -3.18055e-015 0 6.36111e-015 -0 -32.9099 0.861361 -9.03401 -43.6126 -11.0057 61.1456 1.08059 0.326034 28.3046 7.25597 2.78375e-006 2.96991e-007 -2.38542e-015 -4.77083e-015 -1.59028e-015 4.68074e-008 4.41742e-008 4.21358e-007 1.98785e-016 -3.18055e-015 -7.95139e-016 -2.38542e-015 -4.77083e-015 -1.59028e-015 0.0149974 -9.10641e-005 1.52556e-006 -9.93923e-016 0 -1.59028e-015 -2.38542e-015 -4.77083e-015 -1.59028e-015 0.0190143 -0.00119252 -5.87262e-005 -1.98785e-015 -3.18055e-015 -7.95139e-016 -2.38542e-015 -4.77083e-015 -1.59028e-015 0.0123263 -0.0032624 -0.000680718 2.98177e-015 -1.59028e-015 7.95139e-016 -2.38542e-015 -4.77083e-015 -1.59028e-015 4.68074e-008 4.41742e-008 4.21358e-007 1.98785e-016 -3.18055e-015 -7.95139e-016 18.8424 -20.2851 4.64494 -152.339 57.0115 149.079 -4.33676 6.76115 -1.71503 8.69704e-008 3.80253e-007 -1.27529e-006 157.966 -61.4398 171.311 -167.906 44.0293 168.086 5.2141 3.19638 2.55535 6.00252e-006 1.32326e-006 -5.44495e-007 
7.71693 28.5624 13.9787 -90.0728 -88.7133 179.926 -0.128732 1.04562 -0.699747 -0.244703 2.09271 -1.39749 -0.24473 2.09271 -1.39748 12.9981 0.764333 -0.176694 9.00061 -1.19585 0.18929 27.5386 -7.32399 -51.0725 -68.7085 -52.0475 -88.8752 -14.0508 8.8234 -21.381 -7.93628 -0.0650356 0.152177 -3.20433e-007 1.53007e-007 -1.21799e-006 1.59028e-015 6.36111e-015 7.95139e-016 4.77083e-015 3.18055e-015 7.95139e-016 -3.20433e-007 1.53007e-007 -1.21799e-006 -0.0145843 -8.5939e-005 1.32722e-006 3.18055e-015 -3.18055e-015 -2.38542e-015 -3.20433e-007 1.53007e-007 -1.21799e-006 -0.0187513 -0.00117725 6.26893e-005 2.00059e-006 7.28174e-007 -3.6154e-007 -3.20433e-007 1.53007e-007 -1.21799e-006 -0.0122341 -0.00323576 0.000670216 -9.54166e-015 -3.18055e-015 -0 -3.20433e-007 1.53007e-007 -1.21799e-006 1.59028e-015 6.36111e-015 7.95139e-016 4.77083e-015 3.18055e-015 7.95139e-016 -31.7392 0.831224 -8.7113 -42.4605 -11.2887 58.9658 1.04757 0.317325 27.2937 6.99683 2.97712e-007 -3.26431e-007 7.87153e-007 1.04293e-008 -5.33269e-007 1.59028e-015 3.18055e-015 7.95139e-016 2.78299e-015 3.18055e-015 -0 7.87153e-007 1.04293e-008 -5.33269e-007 0.0149779 -9.31997e-005 -6.72516e-007 -2.5842e-015 0 -0 7.87153e-007 1.04293e-008 -5.33269e-007 0.0189817 -0.00118766 -5.91425e-005 -1.98785e-016 6.36111e-015 7.95139e-016 7.87153e-007 1.04293e-008 -5.33269e-007 0.0122647 -0.00324811 -0.000675214 -1.98785e-016 3.18055e-015 -7.95139e-016 7.87153e-007 1.04293e-008 -5.33269e-007 1.59028e-015 3.18055e-015 7.95139e-016 2.78299e-015 3.18055e-015 -0 18.1504 -18.9297 4.37203 -149.016 60.9703 146.531 -4.31601 6.43361 -1.6254 -3.37934e-015 -7.95139e-016 1.59028e-015 154.903 -65.9189 168.018 -166.519 48.5817 166.962 5.55988 2.95679 2.10443 -2.23487e-006 -1.62716e-006 1.1466e-006 
